<?xml version="1.0" encoding="utf-8"?>
<!-- Generator: Adobe Illustrator 26.1.0, SVG Export Plug-In . SVG Version: 6.00 Build 0)  -->
<svg version="1.1" id="Слой_1" xmlns="http://www.w3.org/2000/svg" xmlns:xlink="http://www.w3.org/1999/xlink" x="0px" y="0px"
	 viewBox="0 0 1920 1080" style="enable-background:new 0 0 1920 1080;" xml:space="preserve">
<style type="text/css">
	.st0{fill:#767BE2;}
	.st1{fill:#767BE2;stroke:#000000;stroke-miterlimit:10;}
	.st2{fill:none;}
</style>
<g>
	<path class="st0" d="M720.72,304.51l1.56-2.23c-0.96-1.09-1.89-2.2-2.82-3.31c0.11,0.83,0.23,1.65,0.36,2.47
		C720.11,302.46,720.42,303.49,720.72,304.51z"/>
</g>
<g>
	<path class="st0" d="M1118.57,448.75c-0.09,23.17-3.58,38.63-4.69,43.3c-1.22,5.14-5.81,23.5-17.5,45.55c0-0.01,0-0.01,0-0.02
		c0.01-0.01,0.01-0.02,0.01-0.02c0.11-0.22,0.22-0.45,0.33-0.68c0.12-0.26,0.24-0.51,0.36-0.77c0.22-0.48,0.45-0.96,0.67-1.45
		c0.17-0.36,0.33-0.71,0.49-1.07c0.35-0.78,0.71-1.57,1.05-2.37c0.27-0.58,0.52-1.17,0.77-1.76c0.46-1.08,0.92-2.16,1.36-3.25
		c0.42-0.98,0.81-1.97,1.2-2.96c0.04-0.1,0.08-0.21,0.12-0.3c0.22-0.56,0.44-1.12,0.65-1.68c0.57-1.46,1.11-2.92,1.65-4.39
		c0.64-1.78,1.26-3.57,1.86-5.37c0.08-0.22,0.14-0.43,0.22-0.65c0.04-0.12,0.08-0.25,0.12-0.37c0.28-0.86,0.56-1.74,0.83-2.61
		c0.2-0.6,0.38-1.2,0.57-1.81c0.56-1.83,1.1-3.66,1.61-5.5c0.52-1.84,1.01-3.69,1.48-5.55c0.94-3.73,1.79-7.48,2.55-11.27
		c0.25-1.24,0.48-2.47,0.71-3.71c0.07-0.33,0.12-0.66,0.17-0.99c0.07-0.37,0.14-0.76,0.21-1.14c0.16-0.92,0.32-1.83,0.46-2.75
		c0.01-0.01,0.01-0.03,0.01-0.05c0.14-0.88,0.28-1.75,0.41-2.62c0.01-0.07,0.02-0.14,0.03-0.22c0.23-1.55,0.45-3.1,0.64-4.65
		c0.06-0.42,0.11-0.84,0.16-1.25c0.07-0.57,0.14-1.15,0.2-1.72c0.03-0.22,0.05-0.43,0.08-0.66c0.11-0.98,0.21-1.95,0.31-2.94
		c0.02-0.23,0.05-0.46,0.07-0.69c0.04-0.41,0.08-0.81,0.11-1.22c0.08-0.8,0.15-1.6,0.21-2.4c0.11-1.34,0.21-2.69,0.29-4.04
		c0-0.06,0.01-0.11,0.01-0.17c0-0.05,0.01-0.09,0.01-0.14C1118.45,451.18,1118.51,449.97,1118.57,448.75z"/>
</g>
<path class="st1" d="M1200.54,476.36"/>
<path class="st0" d="M1117.19,421.89c-0.75-6.43-1.79-12.73-3.07-18.86c-6.56-31.68-19.39-58.99-30.43-78.19
	c-10.72-18.62-19.74-29.63-19.74-29.63c-3.23-3.88-7.95-9.35-13.97-15.57c-26.15-27.05-53.42-44.32-54.83-42.64
	c-0.68,0.81,5.18,5.37,12,17c2.69,4.58,4.63,8.72,6,12c-4.28-5.62-9.34-11.63-15.26-17.76c-7.8-8.06-15.48-14.66-22.47-20
	c-1.45-0.65-2.89-1.27-4.31-1.87c8.87,10.08,16.76,21.01,23.52,32.63c-17.47-18.35-38.23-33.7-61.38-45.15
	c-2.26-0.55-4.23-0.99-5.9-1.35c33.52,22.11,61.5,54.54,80.88,93.66c2.45,4.94,4.76,9.98,6.92,15.13c1.95,4.63,3.77,9.32,5.48,14.1
	c2.14,5.97,4.09,12.04,5.84,18.23c0.92,3.26,1.8,6.56,2.6,9.87c-1.45-0.74-2.94-1.41-4.47-2c-0.77-0.32-1.54-0.6-2.33-0.86
	c-5.18-1.75-10.73-2.7-16.5-2.7c-1.13,0-2.23,0.03-3.34,0.11c-4.73,0.3-9.27,1.24-13.57,2.73c-1.1-0.86-2.37-1.77-3.8-2.71
	c-2.57-1.68-5.66-3.42-9.28-4.97c-5.72-2.45-10.9-3.6-14.81-4.18c0.18,3.23,0.74,7.51,2.29,12.32c1.68,5.19,3.94,9.21,5.81,12.03
	c-3.13,3.17-5.86,6.75-8.08,10.64c-4.33,7.55-6.81,16.3-6.81,25.61c0,0.6,0.01,1.19,0.04,1.79c0.1,3.07,0.48,6.06,1.1,8.98
	c-4.28-0.56-8.52-1.18-12.74-1.86c-10.7-1.72-21.21-3.83-31.53-6.31c-51.68-12.39-98.4-34.05-137.19-62.56
	c-19.27-14.16-36.59-30.01-51.58-47.27c-0.52,0.74-1.04,1.49-1.56,2.23c0.81,1.83,1.62,3.66,2.43,5.49c2.24,6.12,5.72,14.53,11,24
	c7.61,13.63,14.98,22.32,25,34c15.64,18.23,24.65,28.73,40.39,38.35c9.17,5.6,17.49,9,23.34,11.04c-6.19-1.32-12.23-2.98-18.11-4.96
	c-28.64-9.68-53.3-27.01-71.06-49.32c1.45,3.21,2.99,6.38,4.64,9.53c11,16.64,24.37,31.81,39.68,45.09
	c17.44,15.13,37.39,27.82,59.2,37.49c-23.01-7.17-44.31-18.58-63.11-33.36c42.34,44.2,105.77,77.21,179.87,91.57
	c10.07,1.95,24.29,3.68,36.61,4.98c-0.74-0.2-1.48-0.38-2.21-0.55c-6.7-0.73-13.97-1.52-21-2.29c1.04-0.02,10.64-0.11,21,2.29
	c0.74,0.18,1.47,0.37,2.21,0.55c7.23,4.84,10.76,10.16,12.55,13.59c11.12,21.34-4.54,47.99-6.64,51.55
	c-1.64,2.79-3.84,6.02-5.67,8.71c-5.07,7.46-10.25,14.22-15.35,20.31c-7.02,8.38-13.88,15.49-20.13,21.43
	c-2.17,2.02-4.39,3.99-6.63,5.92c-0.01,0.01-0.03,0.02-0.04,0.03c-2.47,2.11-4.98,4.17-7.52,6.16c0.12-0.02,0.24-0.04,0.36-0.07
	c6.38-2.43,13.21-5.37,20.33-8.95c3.17-1.59,6.39-3.3,9.66-5.15c21.34-12.09,37.42-25.96,48.92-37.7
	c-7.15,7.98-14.71,15.66-22.66,23.01c-0.66,0.61-1.31,1.21-1.97,1.8c-7.37,6.72-15.04,13.16-23.01,19.31
	c10.72-3.51,29.1-10.33,49.36-22.71c21.52-15.27,42.7-33.96,61.19-56.75c1.16-1.66,2.27-3.31,3.35-4.95
	c4.19-6.7,9.69-16.64,9.69-16.39c0.11-0.22,0.22-0.45,0.33-0.68c0.12-0.26,0.24-0.51,0.36-0.77c0.07-0.15,0.14-0.31,0.21-0.47
	c0.16-0.33,0.31-0.65,0.46-0.98c0.17-0.36,0.33-0.71,0.49-1.07c0.35-0.78,0.71-1.57,1.05-2.37c0.26-0.58,0.51-1.17,0.77-1.76
	c0.46-1.08,0.92-2.16,1.36-3.25c0.41-0.98,0.81-1.97,1.2-2.96c0.04-0.1,0.08-0.21,0.12-0.3c0.22-0.56,0.44-1.12,0.65-1.68
	c0.57-1.46,1.11-2.92,1.65-4.39c0.36-1,0.71-2,1.05-3.01c0.05-0.13,0.09-0.27,0.14-0.4c0.23-0.65,0.45-1.31,0.67-1.96
	c0.08-0.22,0.14-0.43,0.22-0.65c0.04-0.12,0.08-0.25,0.12-0.37c0.19-0.57,0.37-1.13,0.54-1.7c0.1-0.3,0.2-0.6,0.29-0.91
	c0.2-0.6,0.38-1.2,0.57-1.81c0.56-1.83,1.1-3.66,1.61-5.5c0.52-1.84,1.01-3.69,1.48-5.55c0.94-3.73,1.79-7.48,2.55-11.27
	c0.25-1.24,0.48-2.47,0.71-3.71c0.07-0.33,0.12-0.66,0.17-0.99c0.07-0.37,0.14-0.76,0.21-1.14c0.16-0.92,0.32-1.83,0.46-2.75
	c0.01-0.01,0.01-0.03,0.01-0.05c0.14-0.88,0.28-1.75,0.41-2.62c0.01-0.07,0.02-0.14,0.03-0.22c0.1-0.7,0.2-1.41,0.3-2.12
	c0.12-0.84,0.23-1.68,0.34-2.53c0.06-0.42,0.11-0.84,0.16-1.25c0.07-0.57,0.14-1.15,0.2-1.72c0.03-0.22,0.05-0.43,0.08-0.66
	c0.11-0.98,0.21-1.95,0.31-2.94c0.02-0.23,0.05-0.46,0.07-0.69c0.04-0.41,0.08-0.81,0.11-1.22c0.04-0.38,0.07-0.76,0.1-1.15
	c0.04-0.41,0.08-0.83,0.11-1.25c0.03-0.41,0.06-0.83,0.09-1.25c0.08-0.92,0.14-1.86,0.2-2.79c0-0.06,0.01-0.11,0.01-0.17
	c0-0.05,0.01-0.09,0.01-0.14c0.08-1.21,0.14-2.43,0.2-3.64C1119.15,436.48,1117.8,427.22,1117.19,421.89z"/>
<path class="st0" d="M1015.33,520.75c0.59,0.05,0.94,0.08,1.01,0.1C1016.28,520.85,1015.93,520.82,1015.33,520.75z"/>
<path class="st0" d="M988.39,517.86c11.79,1.28,21.86,2.37,25.98,2.8c-3.89-0.34-13.12-1.14-23.77-2.25
	C989.86,518.21,989.12,518.03,988.39,517.86z"/>
<path class="st0" d="M1083.35,558.9c-18.34,26.11-40.72,44.27-61.19,56.75C1043.68,600.38,1064.86,581.69,1083.35,558.9z"/>
<path class="st0" d="M1096.39,537.56c0,0,0,0.01-0.01,0.02c-0.01,0-0.01,0.01-0.01,0.01c-0.01,0.03-0.02,0.05-0.03,0.09
	c-0.01,0.01-0.03,0.05-0.04,0.09c-0.01,0.01-0.02,0.02-0.03,0.04c-2.78,5.22-5.94,10.64-9.57,16.14
	C1090.89,547.25,1096.39,537.31,1096.39,537.56z"/>
<path class="st0" d="M1114.28,483.75c0.25-1.24,0.48-2.47,0.71-3.71c-0.06,0.33-0.12,0.65-0.17,0.98
	C1114.64,481.94,1114.46,482.84,1114.28,483.75z"/>
<path class="st0" d="M1115.37,477.91c0.16-0.92,0.32-1.83,0.46-2.75c-0.1,0.64-0.2,1.27-0.31,1.9c-0.02,0.08-0.03,0.16-0.04,0.24
	c-0.02,0.08-0.03,0.15-0.04,0.23C1115.42,477.66,1115.39,477.78,1115.37,477.91z"/>
<path class="st0" d="M1115.84,475.11c0.14-0.88,0.28-1.75,0.41-2.62c-0.04,0.22-0.07,0.45-0.1,0.67
	C1116.05,473.82,1115.95,474.46,1115.84,475.11z"/>
<path class="st0" d="M1117.85,459.14c-0.01,0.25-0.04,0.51-0.06,0.76c-0.02,0.15-0.03,0.31-0.05,0.46
	C1117.78,459.95,1117.82,459.55,1117.85,459.14z"/>
<path class="st0" d="M961.86,637.09c-16.34,10.37-32.1,19.16-46.88,26.62c25.81-19.5,39.28-29.4,40.38-29.71
	c-2.17,2.02-4.39,3.99-6.63,5.92c-0.01,0.01-0.03,0.02-0.04,0.03c-2.04,1.69-4.55,3.74-7.52,6.16c0.12-0.02,0.24-0.04,0.36-0.07
	C947.91,643.61,954.74,640.67,961.86,637.09z"/>
<path class="st2" d="M966.29,754.18c-0.27,0.11-0.53,0.22-0.79,0.32c0.15-0.08,0.29-0.16,0.44-0.25
	C966.06,754.23,966.17,754.21,966.29,754.18z"/>
<path class="st2" d="M979.34,728.71c-2.99,2.56-6.03,5.05-9.11,7.46C973.83,733.24,976.87,730.76,979.34,728.71z"/>
<path class="st0" d="M1022.16,615.65c-29.42,20.89-59.5,35.41-84.24,45.32c-0.1,0.03-0.19,0.04-0.29,0.06
	c17.79-10.09,37.96-23.69,58.18-41.98c-7.37,6.72-15.04,13.16-23.01,19.31C983.52,634.85,1001.9,628.03,1022.16,615.65z"/>
<path class="st2" d="M1096.39,537.56c0,0,0,0.01-0.01,0.02c0,0.01,0,0.01,0,0.02c-0.01,0.02-0.03,0.04-0.04,0.08
	c-0.01,0.01-0.03,0.05-0.04,0.09c-0.01,0.01-0.02,0.02-0.03,0.04c-30.35,63.53-88.66,110.29-158.35,123.16
	c24.74-9.91,54.82-24.43,84.24-45.32c21.52-15.27,42.7-33.96,61.19-56.75c0.85-1.05,2.04-2.84,3.35-4.95
	C1090.89,547.25,1096.39,537.31,1096.39,537.56z"/>
<g>
	<g>
		<path class="st0" d="M744.57,801.26c-4.96-0.7-9.59-1.76-13.89-3.17c-4.3-1.41-8.32-3.17-12.07-5.28l10.05-8.24
			c4.38,2.54,9.2,4.44,14.48,5.71c5.27,1.27,11,1.9,17.17,1.9c8.33,0,14.79-1.03,19.38-3.09c4.59-2.06,6.88-4.97,6.88-8.75v-0.05
			c0-2.68-1.04-4.8-3.12-6.37c-2.08-1.57-4.77-2.73-8.07-3.49c-3.3-0.76-7.56-1.45-12.78-2.09c-0.16-0.03-0.33-0.05-0.51-0.05
			c-0.19,0-0.36-0.02-0.51-0.05l-1.19-0.16c-7.7-0.88-13.96-1.88-18.79-2.99c-4.83-1.11-8.95-3.14-12.38-6.08
			c-3.43-2.94-5.14-7.12-5.14-12.55v-0.05c0-4.76,1.6-8.82,4.79-12.18s7.85-5.93,13.96-7.69c6.12-1.76,13.48-2.64,22.08-2.64
			c4.11,0,8.16,0.3,12.14,0.9c3.98,0.6,7.91,1.49,11.79,2.67c3.88,1.18,7.69,2.67,11.43,4.46l-9.18,8.56
			c-4.38-2.15-8.74-3.76-13.09-4.83c-4.35-1.07-8.72-1.61-13.09-1.61c-7.86,0-13.96,1.05-18.32,3.14c-4.35,2.1-6.53,5.06-6.53,8.9
			v0.05c0,2.64,1.12,4.72,3.36,6.24c2.24,1.52,5.04,2.63,8.39,3.36c3.35,0.72,8,1.47,13.96,2.25c0.21,0.04,0.41,0.06,0.59,0.08
			c0.18,0.02,0.38,0.04,0.59,0.08c0.26,0.04,0.55,0.07,0.87,0.11c0.32,0.04,0.61,0.07,0.87,0.11c6.96,0.95,12.78,2.08,17.45,3.38
			c4.67,1.3,8.57,3.41,11.71,6.31c3.14,2.91,4.71,6.88,4.71,11.92v0.11c0,4.69-1.66,8.69-4.98,12.02
			c-3.32,3.33-8.14,5.87-14.44,7.61c-6.3,1.74-13.91,2.62-22.83,2.62C754.78,802.32,749.53,801.97,744.57,801.26z"/>
		<path class="st0" d="M837.15,798.78c-6.04-2.36-10.72-5.71-14.04-10.04s-4.98-9.35-4.98-15.06v-21.08
			c0-5.71,1.66-10.73,4.98-15.06s8-7.69,14.04-10.07c6.04-2.38,13.04-3.57,21.01-3.57c6.59,0,12.66,0.94,18.2,2.83
			c5.54,1.88,10.17,4.55,13.89,8.01c3.72,3.45,6.24,7.45,7.56,12h-16.54c-1-2.4-2.68-4.54-5.02-6.42c-2.35-1.88-5.1-3.34-8.27-4.36
			c-3.16-1.02-6.44-1.53-9.81-1.53c-4.7,0-8.81,0.76-12.34,2.27c-3.53,1.51-6.28,3.64-8.23,6.37c-1.95,2.73-2.93,5.91-2.93,9.54
			v21.08c0,3.59,0.98,6.76,2.93,9.51c1.95,2.75,4.69,4.87,8.23,6.37c3.53,1.5,7.65,2.25,12.34,2.25c3.43,0,6.71-0.48,9.85-1.43
			c3.14-0.95,5.88-2.36,8.23-4.23c2.35-1.87,4.02-4.09,5.02-6.66h16.54c-1.32,4.54-3.85,8.54-7.6,12
			c-3.75,3.45-8.39,6.12-13.92,8.01c-5.54,1.88-11.58,2.83-18.12,2.83C850.19,802.32,843.18,801.14,837.15,798.78z"/>
		<path class="st0" d="M955.31,770.3v31.23h-16.14V770.3l-35.05-45.6h17.96l25.16,34.66l25.16-34.66h17.96L955.31,770.3z"/>
		<path class="st0" d="M999.53,724.69h81.18v10.25h-81.18V724.69z M1032.05,730.98h16.14v70.54h-16.14V730.98z"/>
		<path class="st0" d="M1093.37,724.69h16.14v76.83h-16.14V724.69z M1103.42,758.57h63.85v10.25h-63.85V758.57z M1158.73,724.69
			h16.14v76.83h-16.14V724.69z"/>
	</g>
</g>
<g>
	<g>
		<path class="st0" d="M844.2,849.03v6.04c0,2.57-1.03,4.83-3.08,6.79s-4.96,3.47-8.72,4.54s-8.12,1.61-13.07,1.61
			c-5.02,0-9.42-0.5-13.21-1.51c-3.79-1.01-6.73-2.43-8.82-4.27s-3.13-3.97-3.13-6.4v-10.21c0-2.57,1.03-4.83,3.08-6.78
			c2.05-1.95,4.96-3.46,8.72-4.53c3.76-1.07,8.12-1.61,13.07-1.61c4.07,0,7.82,0.42,11.26,1.27c3.44,0.85,6.31,2.05,8.62,3.6
			c2.31,1.55,3.88,3.35,4.69,5.4h-10.8c-0.59-1.16-1.58-2.15-2.98-2.99c-1.4-0.83-3.05-1.47-4.93-1.9
			c-1.89-0.44-3.84-0.65-5.86-0.65c-2.93,0-5.5,0.34-7.72,1.02c-2.21,0.68-3.92,1.64-5.13,2.87c-1.21,1.23-1.81,2.66-1.81,4.29
			v10.21c0,1.49,0.62,2.8,1.86,3.91c1.24,1.12,2.99,1.99,5.25,2.6c2.26,0.62,4.88,0.93,7.84,0.93c2.93,0,5.5-0.32,7.72-0.96
			c2.21-0.64,3.92-1.57,5.13-2.8c1.2-1.22,1.81-2.67,1.81-4.35v-1.5h-14.41v-4.64H844.2z"/>
		<path class="st0" d="M865.32,833.04h9.96v34.62h-9.96V833.04z M869.66,848.41h24.23c1.89,0,3.57-0.22,5.03-0.67
			c1.47-0.44,2.6-1.08,3.4-1.89c0.8-0.82,1.2-1.76,1.2-2.82s-0.4-2-1.2-2.82c-0.8-0.82-1.92-1.45-3.37-1.89
			c-1.45-0.44-3.13-0.67-5.06-0.67h-24.23v-4.62h23.84c4.1,0,7.71,0.41,10.82,1.24c3.11,0.83,5.52,2,7.23,3.51
			c1.71,1.51,2.56,3.26,2.56,5.25s-0.86,3.73-2.59,5.25c-1.73,1.51-4.14,2.68-7.25,3.51c-3.11,0.83-6.7,1.24-10.77,1.24h-23.84
			V848.41z M889.01,851.96l9.92-1.09l18.17,16.8h-11.82L889.01,851.96z"/>
		<path class="st0" d="M945.94,866.43c-3.78-1.05-6.7-2.54-8.77-4.47c-2.07-1.93-3.1-4.16-3.1-6.7v-9.8c0-2.54,1.03-4.77,3.1-6.7
			c2.07-1.93,4.99-3.42,8.77-4.47c3.78-1.05,8.14-1.58,13.09-1.58c4.95,0,9.31,0.53,13.09,1.58s6.7,2.55,8.77,4.47
			c2.07,1.93,3.1,4.16,3.1,6.7v9.8c0,2.54-1.03,4.77-3.1,6.7c-2.07,1.93-4.99,3.42-8.77,4.47c-3.78,1.06-8.14,1.58-13.09,1.58
			C954.08,868.01,949.71,867.49,945.94,866.43z M966.77,862.27c2.23-0.64,3.96-1.55,5.18-2.74c1.22-1.18,1.83-2.55,1.83-4.1v-10.13
			c0-1.55-0.61-2.92-1.83-4.1c-1.22-1.18-2.95-2.09-5.18-2.74c-2.23-0.64-4.81-0.96-7.74-0.96s-5.51,0.32-7.74,0.96
			c-2.23,0.64-3.96,1.55-5.18,2.74c-1.22,1.18-1.83,2.55-1.83,4.1v10.13c0,1.55,0.61,2.92,1.83,4.1c1.22,1.18,2.95,2.09,5.18,2.74
			c2.23,0.64,4.81,0.96,7.74,0.96S964.54,862.91,966.77,862.27z"/>
		<path class="st0" d="M1015.59,866.5c-3.73-1.01-6.57-2.47-8.52-4.4c-1.95-1.93-2.93-4.25-2.93-6.96v-22.08h9.96v22.24
			c0,2.52,1.3,4.47,3.91,5.85c2.6,1.38,6.28,2.07,11.04,2.07c4.79,0,8.49-0.69,11.11-2.07c2.62-1.38,3.93-3.33,3.93-5.85v-22.24
			h9.96v22.08c0,2.71-0.98,5.03-2.93,6.96c-1.95,1.93-4.8,3.39-8.55,4.4c-3.75,1.01-8.26,1.51-13.53,1.51
			C1023.8,868.01,1019.32,867.51,1015.59,866.5z"/>
		<path class="st0" d="M1075.66,833.07h9.96v34.59h-9.96V833.07z M1080.79,849.62h22.71c2.15,0,4.04-0.25,5.67-0.74
			c1.63-0.49,2.89-1.19,3.79-2.09c0.89-0.9,1.34-1.94,1.34-3.12c0-1.19-0.45-2.24-1.34-3.14c-0.9-0.9-2.16-1.61-3.79-2.11
			c-1.63-0.5-3.52-0.75-5.67-0.75h-22.71v-4.62h22.37c4.23,0,7.96,0.44,11.19,1.32c3.22,0.88,5.72,2.12,7.5,3.72
			c1.77,1.6,2.66,3.46,2.66,5.57s-0.89,3.96-2.66,5.55c-1.78,1.59-4.27,2.83-7.5,3.7c-3.22,0.87-6.95,1.31-11.19,1.31h-22.37V849.62
			z"/>
	</g>
</g>
</svg>
